<svg id="Layer_1" data-name="Layer 1" xmlns="http://www.w3.org/2000/svg" viewBox="0 0 723.46 546.02"><defs><style>.cls-1{fill:#e5e5e5;}</style></defs><title>third3</title><path class="cls-1" d="M420.39,7.9c-1.5,0-107.5,6-125,7s-64.5.5-91,0-21.5-8.42-77.5-3.21S53.39,14.4,38.39,29.4s-27,57-28.5,80.5-2,70.5-3,99,0,80.5,0,94,1,111.5,1.5,131.5,3,58,12.5,74.5,37,40.5,114,42.5,128.5,4.5,164,0,238.5-12.5,263.5-13,122.5-15,138-32.5,23-41.5,23.5-63.5,5.5-100,5.5-112-2.5-89-2.5-103,4.5-52,2.5-74.5-7.5-84-13.5-91.5-7.5-34-30.5-34.5-108.5-18-124-16.5S420.39,7.9,420.39,7.9Z" transform="translate(-6.44 -7.9)"/></svg>